<svg width="64" height="64" viewBox="0 0 64 64" fill="none" xmlns="http://www.w3.org/2000/svg">
<path opacity="0.3" d="M9.60001 54.4C17.0667 50.1333 24.5333 50.1333 32 54.4C39.4667 50.1333 46.9333 50.1333 54.4 54.4V28.8C46.9333 24.5333 39.4667 24.5333 32 28.8C24.5333 24.5333 17.0667 24.5333 9.60001 28.8V54.4Z" fill="white"/>
<path opacity="0.2" d="M12.8 51.2C19.2 47.7867 25.6 47.7867 32 51.2C38.4 47.7867 44.8 47.7867 51.2 51.2V25.6C44.8 22.1867 38.4 22.1867 32 25.6C25.6 22.1867 19.2 22.1867 12.8 25.6V51.2Z" fill="white"/>
<path fill-rule="evenodd" clip-rule="evenodd" d="M32 6.4L35.84 22.4L51.2 25.6L35.84 29.44L32 44.8L28.16 29.44L12.8 25.6L28.16 22.4L32 6.4ZM32 28.16C33.4138 28.16 34.56 27.0138 34.56 25.6C34.56 24.1862 33.4138 23.04 32 23.04C30.5862 23.04 29.44 24.1862 29.44 25.6C29.44 27.0138 30.5862 28.16 32 28.16Z" fill="white"/>
<path opacity="0.7" d="M32 43.52C41.8969 43.52 49.92 35.4969 49.92 25.6C49.92 15.7031 41.8969 7.68 32 7.68C22.1031 7.68 14.08 15.7031 14.08 25.6C14.08 35.4969 22.1031 43.52 32 43.52Z" stroke="white" stroke-width="2.56" stroke-dasharray="3.84 5.12"/>
</svg>
